<svg xmlns="http://www.w3.org/2000/svg" viewBox="270 455 200 187">
  <rect width="270" height="187" x="270" y="455" rx="28" fill="#0d0d0d"/>
  <path fill="#cbd222" d="M443.32,544.95h-91.69c-20.07,0-36.34-16.27-36.34-36.34h0c0-20.07,16.27-36.34,36.34-36.34h91.69v72.69Z"/>
  <path fill="#cbd222" d="M277.15,544.95h91.69c20.07,0,36.34,16.27,36.34,36.34h0c0,20.07-16.27,36.34-36.34,36.34h-91.69s0-72.69,0-72.69Z"/>
  <path fill="#1b1b1d" d="M377.64,509.71h-39.19c-8.71,23.26,19.59,36.48,19.59,36.48,0,0,28.3-13.22,19.59-36.48Z"/>
  <path fill="#eff1ba" d="M377.64,582.66h-39.19c-8.71-23.26,19.59-36.48,19.59-36.48,0,0,28.3,13.22,19.59,36.48Z"/>
  <path fill="#eff1ba" d="M369.83,524.25h-23.57c-5.24,13.99,11.78,21.94,11.78,21.94,0,0,17.02-7.95,11.78-21.94Z"/>
  <path fill="#1b1b1d" d="M369.83,568.13h-23.57c-5.24-13.99,11.78-21.94,11.78-21.94,0,0,17.02,7.95,11.78,21.94Z"/>
</svg>